<?xml version="1.0" standalone="no"?>
<!DOCTYPE svg PUBLIC "-//W3C//DTD SVG 20010904//EN"
 "http://www.w3.org/TR/2001/REC-SVG-20010904/DTD/svg10.dtd">
<svg version="1.0" xmlns="http://www.w3.org/2000/svg"
 width="390.000000pt" height="390.000000pt" viewBox="0 0 390.000000 390.000000"
 preserveAspectRatio="xMidYMid meet">
<metadata>
Created by potrace 1.11, written by Peter Selinger 2001-2013
</metadata>
<g transform="translate(0.000000,390.000000) scale(0.100000,-0.100000)"
fill="#000000" stroke="none">
<path d="M2278 3865 c-3 -3 -14 -8 -24 -10 -40 -9 -175 -64 -218 -89 -80 -47
-126 -119 -130 -206 -1 -25 -5 -51 -9 -57 -4 -6 -35 -16 -69 -22 -198 -38
-261 -71 -344 -181 -35 -47 -67 -89 -71 -95 -21 -28 -109 -131 -119 -140 -6
-5 -56 -46 -110 -90 -147 -120 -164 -140 -164 -195 0 -43 16 -68 69 -105 l41
-28 138 6 c130 6 185 11 242 22 14 3 43 7 65 11 46 6 175 45 253 76 l53 21 34
-36 c37 -40 70 -86 64 -91 -2 -2 -37 -6 -77 -10 -41 -3 -77 -8 -80 -10 -4 -2
-28 -7 -55 -10 -68 -9 -202 -90 -251 -152 -35 -45 -86 -176 -126 -327 -59
-219 -74 -272 -80 -280 -3 -4 -40 -16 -81 -28 -208 -58 -391 -194 -514 -384
-82 -125 -102 -172 -142 -337 -10 -42 -11 -272 -2 -323 5 -27 11 -61 14 -75
33 -183 203 -424 388 -549 168 -113 319 -156 542 -154 107 0 221 21 301 54 16
7 31 13 34 14 73 21 199 108 297 205 117 116 187 230 232 373 29 94 35 145 36
277 0 135 -9 209 -37 289 -7 20 -13 38 -13 41 -1 3 -7 18 -13 33 -7 16 -12 30
-12 32 0 13 -89 148 -126 192 -66 77 -154 158 -212 195 -33 20 -33 22 -27 72
3 28 8 69 11 91 11 91 25 149 39 165 8 9 15 21 15 27 0 17 77 89 123 116 23
14 55 27 72 28 30 4 30 3 56 -86 14 -49 53 -144 86 -209 l60 -119 -34 -76
c-30 -65 -36 -89 -38 -161 -4 -109 7 -194 32 -250 12 -25 24 -55 28 -68 4 -13
38 -58 75 -100 79 -87 110 -155 112 -247 3 -105 -12 -183 -59 -303 -25 -64
-46 -121 -47 -127 -1 -5 -24 -50 -51 -100 -27 -49 -51 -94 -52 -100 -1 -5 -12
-37 -23 -70 -11 -33 -22 -87 -23 -120 l-2 -60 114 -3 c63 -1 118 1 123 6 4 4
10 28 13 53 10 74 36 202 46 221 6 10 28 44 50 75 25 37 50 91 69 153 100 327
103 337 110 300 6 -33 5 -96 -4 -150 -2 -14 -7 -45 -10 -70 -12 -75 -57 -244
-71 -265 -14 -23 -34 -133 -42 -242 -5 -70 -5 -72 18 -77 41 -8 213 -4 225 5
6 5 12 37 13 71 5 167 6 170 81 383 17 50 38 126 46 170 8 44 20 96 26 115 17
52 18 58 25 150 4 70 2 96 -15 145 -27 80 -24 200 6 267 12 26 22 53 23 60 0
7 5 2 11 -12 6 -14 13 -115 15 -225 6 -223 11 -242 57 -211 29 19 30 23 15 63
-12 29 -13 45 -24 247 -3 65 -10 140 -15 165 -11 55 -18 153 -26 361 -3 85
-11 173 -17 195 -6 22 -11 42 -12 45 -45 164 -128 335 -247 510 -57 85 -119
182 -137 215 -18 33 -52 87 -75 120 -23 33 -59 96 -81 140 -40 79 -54 96 -316
374 l-70 74 25 26 c34 35 53 86 55 146 2 28 4 61 5 75 3 24 -2 51 -25 133 -8
29 -15 37 -33 37 -12 0 -25 -2 -28 -5z m-394 -1537 c-23 -24 -50 -59 -61 -79
-24 -42 -60 -140 -67 -184 -3 -16 -8 -39 -10 -51 -2 -12 -7 -45 -11 -75 -10
-88 -12 -92 -49 -84 -17 4 -49 9 -71 12 -22 2 -45 6 -51 8 -7 2 3 55 26 146
71 279 79 292 208 321 47 10 88 21 91 24 2 2 11 4 20 4 10 0 1 -15 -25 -42z"/>
</g>
</svg>
